<mxfile host="Electron" agent="Mozilla/5.0 (Macintosh; Intel Mac OS X 10_15_7) AppleWebKit/537.36 (KHTML, like Gecko) draw.io/24.7.5 Chrome/126.0.6478.183 Electron/31.3.0 Safari/537.36" version="24.7.5">
  <diagram name="ページ1" id="MDqU87q_nH98M3H5emuD">
    <mxGraphModel dx="502" dy="317" grid="1" gridSize="10" guides="1" tooltips="1" connect="1" arrows="1" fold="1" page="1" pageScale="1" pageWidth="827" pageHeight="1169" math="1" shadow="0">
      <root>
        <mxCell id="0" />
        <mxCell id="1" parent="0" />
        <mxCell id="egHxGzqivEEAxRuBwZOQ-9" style="rounded=0;orthogonalLoop=1;jettySize=auto;html=1;exitX=1;exitY=0.5;exitDx=0;exitDy=0;entryX=0;entryY=0.5;entryDx=0;entryDy=0;endArrow=none;endFill=0;fillColor=#dae8fc;strokeColor=#007FFF;" edge="1" parent="1" source="egHxGzqivEEAxRuBwZOQ-1" target="egHxGzqivEEAxRuBwZOQ-2">
          <mxGeometry relative="1" as="geometry" />
        </mxCell>
        <mxCell id="egHxGzqivEEAxRuBwZOQ-11" style="rounded=0;orthogonalLoop=1;jettySize=auto;html=1;exitX=0.5;exitY=0;exitDx=0;exitDy=0;entryX=0.5;entryY=1;entryDx=0;entryDy=0;endArrow=none;endFill=0;fillColor=#f8cecc;strokeColor=#FF0080;" edge="1" parent="1" source="egHxGzqivEEAxRuBwZOQ-1" target="egHxGzqivEEAxRuBwZOQ-3">
          <mxGeometry relative="1" as="geometry" />
        </mxCell>
        <mxCell id="egHxGzqivEEAxRuBwZOQ-1" value="" style="ellipse;whiteSpace=wrap;html=1;aspect=fixed;fillColor=#000000;" vertex="1" parent="1">
          <mxGeometry x="110" y="270" width="20" height="20" as="geometry" />
        </mxCell>
        <mxCell id="egHxGzqivEEAxRuBwZOQ-10" style="rounded=0;orthogonalLoop=1;jettySize=auto;html=1;exitX=0.5;exitY=0;exitDx=0;exitDy=0;entryX=0.5;entryY=1;entryDx=0;entryDy=0;endArrow=none;endFill=0;fillColor=#f8cecc;strokeColor=#FF0080;" edge="1" parent="1" source="egHxGzqivEEAxRuBwZOQ-2" target="egHxGzqivEEAxRuBwZOQ-4">
          <mxGeometry relative="1" as="geometry" />
        </mxCell>
        <mxCell id="egHxGzqivEEAxRuBwZOQ-2" value="" style="ellipse;whiteSpace=wrap;html=1;aspect=fixed;fillColor=#000000;" vertex="1" parent="1">
          <mxGeometry x="270" y="230" width="20" height="20" as="geometry" />
        </mxCell>
        <mxCell id="egHxGzqivEEAxRuBwZOQ-12" style="rounded=0;orthogonalLoop=1;jettySize=auto;html=1;exitX=1;exitY=0.5;exitDx=0;exitDy=0;entryX=0;entryY=0.574;entryDx=0;entryDy=0;endArrow=none;endFill=0;fillColor=#dae8fc;strokeColor=#007FFF;entryPerimeter=0;" edge="1" parent="1" target="egHxGzqivEEAxRuBwZOQ-4">
          <mxGeometry relative="1" as="geometry">
            <mxPoint x="170" y="156.99999999999994" as="sourcePoint" />
            <mxPoint x="310.0000000000026" y="117" as="targetPoint" />
          </mxGeometry>
        </mxCell>
        <mxCell id="egHxGzqivEEAxRuBwZOQ-3" value="" style="ellipse;whiteSpace=wrap;html=1;aspect=fixed;fillColor=#000000;" vertex="1" parent="1">
          <mxGeometry x="150" y="150" width="20" height="20" as="geometry" />
        </mxCell>
        <mxCell id="egHxGzqivEEAxRuBwZOQ-4" value="" style="ellipse;whiteSpace=wrap;html=1;aspect=fixed;fillColor=#000000;" vertex="1" parent="1">
          <mxGeometry x="310" y="110" width="20" height="20" as="geometry" />
        </mxCell>
        <mxCell id="egHxGzqivEEAxRuBwZOQ-14" style="rounded=0;orthogonalLoop=1;jettySize=auto;html=1;exitX=1;exitY=0;exitDx=0;exitDy=0;endArrow=none;endFill=0;fillColor=#f8cecc;strokeColor=#FF0080;entryX=0;entryY=1;entryDx=0;entryDy=0;dashed=1;dashPattern=8 8;" edge="1" parent="1" source="egHxGzqivEEAxRuBwZOQ-1" target="egHxGzqivEEAxRuBwZOQ-4">
          <mxGeometry relative="1" as="geometry">
            <mxPoint x="360" y="80" as="targetPoint" />
          </mxGeometry>
        </mxCell>
        <mxCell id="egHxGzqivEEAxRuBwZOQ-16" style="rounded=0;orthogonalLoop=1;jettySize=auto;html=1;exitX=1;exitY=1;exitDx=0;exitDy=0;entryX=0;entryY=0;entryDx=0;entryDy=0;endArrow=none;endFill=0;fillColor=#f8cecc;strokeColor=#FF0080;dashed=1;dashPattern=8 8;" edge="1" parent="1" source="egHxGzqivEEAxRuBwZOQ-3" target="egHxGzqivEEAxRuBwZOQ-2">
          <mxGeometry relative="1" as="geometry" />
        </mxCell>
        <mxCell id="egHxGzqivEEAxRuBwZOQ-17" value="$$g$$" style="text;html=1;align=center;verticalAlign=middle;resizable=0;points=[];autosize=1;strokeColor=none;fillColor=none;" vertex="1" parent="1">
          <mxGeometry x="90" y="288" width="60" height="30" as="geometry" />
        </mxCell>
        <mxCell id="egHxGzqivEEAxRuBwZOQ-18" value="$$gb$$" style="text;html=1;align=center;verticalAlign=middle;resizable=0;points=[];autosize=1;strokeColor=none;fillColor=none;" vertex="1" parent="1">
          <mxGeometry x="260" y="240" width="60" height="30" as="geometry" />
        </mxCell>
        <mxCell id="egHxGzqivEEAxRuBwZOQ-19" value="$$ag=a&#39;gb$$" style="text;html=1;align=center;verticalAlign=middle;resizable=0;points=[];autosize=1;strokeColor=none;fillColor=none;" vertex="1" parent="1">
          <mxGeometry x="105" y="120" width="90" height="30" as="geometry" />
        </mxCell>
        <mxCell id="egHxGzqivEEAxRuBwZOQ-21" value="$$agb=a&#39;g$$" style="text;html=1;align=center;verticalAlign=middle;resizable=0;points=[];autosize=1;strokeColor=none;fillColor=none;" vertex="1" parent="1">
          <mxGeometry x="290" y="80" width="90" height="30" as="geometry" />
        </mxCell>
        <mxCell id="egHxGzqivEEAxRuBwZOQ-27" style="rounded=0;orthogonalLoop=1;jettySize=auto;html=1;exitX=1;exitY=0.5;exitDx=0;exitDy=0;entryX=0.092;entryY=0.677;entryDx=0;entryDy=0;endArrow=none;endFill=0;fillColor=#dae8fc;strokeColor=#007FFF;entryPerimeter=0;dashed=1;dashPattern=8 8;" edge="1" parent="1" source="egHxGzqivEEAxRuBwZOQ-3" target="egHxGzqivEEAxRuBwZOQ-4">
          <mxGeometry relative="1" as="geometry">
            <mxPoint x="170" y="170" as="sourcePoint" />
            <mxPoint x="310" y="130" as="targetPoint" />
          </mxGeometry>
        </mxCell>
      </root>
    </mxGraphModel>
  </diagram>
</mxfile>
